<?xml version="1.0" encoding="UTF-8"?>
<svg xmlns="http://www.w3.org/2000/svg" xmlns:xlink="http://www.w3.org/1999/xlink" width="0" height="0">
<defs>
<symbol fill="none" id="icons/chip-logo"><path fill="#1F1E25" d="M47.76 19h-3.02v-5.52c-.84.293-1.613.513-2.32.66-.693.147-1.393.22-2.1.22-1.333 0-2.38-.32-3.14-.96-.747-.653-1.12-1.58-1.12-2.78v-5.9h3.02v5.04c0 .693.16 1.213.48 1.56.32.347.86.52 1.62.52.56 0 1.12-.06 1.68-.18.56-.12 1.187-.3 1.88-.54v-6.4h3.02V19Zm6.33-10.92V19h-2.98V8.08h2.98ZM52.61 3.8c.44 0 .82.107 1.14.32.32.2.48.58.48 1.14 0 .547-.16.927-.48 1.14-.32.213-.7.32-1.14.32-.453 0-.84-.107-1.16-.32-.306-.213-.46-.593-.46-1.14 0-.56.154-.94.46-1.14.32-.213.707-.32 1.16-.32Zm14.514 4.28V19h-2.98v-8.68h-3.96V19h-2.98V8.08h9.92ZM87.174 19h-3.02v-5.52c-.84.293-1.613.513-2.32.66-.693.147-1.393.22-2.1.22-1.333 0-2.38-.32-3.14-.96-.747-.653-1.12-1.58-1.12-2.78v-5.9h3.02v5.04c0 .693.16 1.213.48 1.56.32.347.86.52 1.62.52.56 0 1.12-.06 1.68-.18.56-.12 1.187-.3 1.88-.54v-6.4h3.02V19Zm7.85-11.12c1.014 0 1.88.193 2.6.58a4.05 4.05 0 0 1 1.7 1.68c.4.733.6 1.633.6 2.7v1.44h-7.04c.028.84.274 1.5.74 1.98.48.48 1.14.72 1.98.72.707 0 1.347-.067 1.92-.2a9.732 9.732 0 0 0 1.78-.66v2.3c-.532.267-1.1.46-1.7.58-.586.133-1.3.2-2.14.2-1.093 0-2.06-.2-2.9-.6a4.593 4.593 0 0 1-1.98-1.86c-.48-.827-.72-1.867-.72-3.12 0-1.28.214-2.34.64-3.18.44-.853 1.047-1.493 1.82-1.92.774-.427 1.674-.64 2.7-.64Zm.02 2.12c-.572 0-1.052.187-1.44.56-.373.373-.593.953-.66 1.74h4.18c0-.44-.08-.833-.24-1.18a1.785 1.785 0 0 0-.68-.82c-.306-.2-.692-.3-1.16-.3Zm10.277-1.92v4.2h4.16v-4.2h2.98V19h-2.98v-4.5h-4.16V19h-2.98V8.08h2.98Zm20.082 0v8.74h1.6v6.1h-2.68V19h-7.34v3.92h-2.68v-6.1h.92c.48-.733.887-1.567 1.22-2.5.334-.947.6-1.953.8-3.02.2-1.067.347-2.14.44-3.22h7.72Zm-5.22 2.24c-.106.8-.24 1.58-.4 2.34-.16.747-.36 1.467-.6 2.16a13.07 13.07 0 0 1-.84 2h4.08v-6.5h-2.24Zm24.202-2.24-4.02 5.24 4.4 5.68h-3.18l-4.16-5.54V19h-2.78v-5.54l-4.16 5.54h-3.18l4.4-5.68-4.02-5.24h3.08l3.88 5.3v-5.3h2.78v5.3l3.88-5.3h3.08Z"></path><g clip-path="url(#a)"><rect width="21" height="21" x="1" y="1" fill="#595769" rx="4"></rect><path fill="url(#b)" d="M16.37 0v4.833a3.84 3.84 0 0 0-2.486 3.07h-4.77a3.84 3.84 0 0 0-2.486-3.07V0H16.37Zm.818 17.1h-.001c-.02-.004-.039-.01-.059-.013a2.638 2.638 0 0 1-2.032-2.55V8.463c0-.07.003-.142.01-.212 0-.007 0-.014.002-.021a2.634 2.634 0 0 1 2.022-2.318l.038-.008.022-.005c.17-.035.345-.053.524-.053H23v11.307h-5.285a2.65 2.65 0 0 1-.526-.053ZM5.81 5.9l.02.005.04.01a2.637 2.637 0 0 1 2.034 2.55v6.074c0 .07-.003.142-.01.212 0 .007 0 .014-.002.021a2.635 2.635 0 0 1-2.02 2.318c-.02.004-.038.01-.058.013h-.002c-.17.036-.347.053-.526.053H0V5.845h5.285c.18 0 .355.018.524.054h.001Zm3.346 3.257h4.688v4.688H9.156V9.156ZM0 4.44A4.444 4.444 0 0 1 4.44 0h.937v4.596l-.091-.002H0V4.44ZM4.44 23A4.445 4.445 0 0 1 0 18.56v-.153h5.285l.09-.003V23H4.44h.001Zm2.19 0v-4.833a3.84 3.84 0 0 0 2.486-3.07h4.77a3.842 3.842 0 0 0 2.486 3.07V23H6.63ZM23 18.56A4.445 4.445 0 0 1 18.56 23h-.937v-4.596c.03 0 .06.003.091.003H23v.153H23ZM17.715 4.592l-.09.003V0h.936a4.445 4.445 0 0 1 4.44 4.44v.154h-5.285v-.002Z"></path></g><defs><linearGradient id="b" x1="2.5" x2="20.5" y1="1.5" y2="23" gradientUnits="userSpaceOnUse"><stop stop-color="#EC9F23"></stop><stop offset=".304" stop-color="#FEE2B2"></stop><stop offset=".47" stop-color="#FEE2B2"></stop><stop offset="1" stop-color="#DBA02E"></stop></linearGradient><clipPath id="a"><path fill="#fff" d="M0 0h23v23H0z"></path></clipPath></defs></symbol>
<symbol fill="none" id="icons/login-icon"><path fill="#1F1E25" d="M2.222 14.3h2.222v5.5h13.334V2.2H4.444v5.5H2.222V1.1c0-.292.117-.572.326-.778.208-.206.49-.322.785-.322H18.89c.295 0 .577.116.786.322.208.206.325.486.325.778v19.8c0 .292-.117.572-.325.778a1.117 1.117 0 0 1-.786.322H3.333c-.294 0-.577-.116-.785-.322a1.095 1.095 0 0 1-.326-.778v-6.6ZM8.89 9.9V6.6l5.555 4.4-5.555 4.4v-3.3H0V9.9h8.889Z"></path></symbol>
</defs>
</svg>
